#!OML:ASF I:\golf\golf\golf 2\Subject 1\2002-09-07\Subject1.ASF
:FULLY-SPECIFIED
:DEGREES
377
root -5.08883 17.9877 -3.81449 -168.124 -7.17507 -172.302
lowerback -14.0302 16.8066 11.8241
upperback -16.7786 18.1247 -0.906932
thorax -7.06181 6.53918 -4.86331
lowerneck -8.04751 -20.6937 -5.89481
upperneck 14.0438 -29.1585 4.99535
head 7.1606 -14.2914 -0.431606
rclavicle -1.19867e-013 -4.25399e-014
rhumerus 111.55 26.4337 -51.8512
rradius 76.1983
rwrist 17.211
rhand -51.504 31.7759
rfingers 7.12502
rthumb -24.0319 3.26046
lclavicle -1.19867e-013 -4.25399e-014
lhumerus 75.4791 25.5054 65.1405
lradius 83.0527
lwrist 13.5562
lhand -32.1227 8.64465
lfingers 7.12502
lthumb -185.367 -141.443
rfemur 18.9523 -10.7998 25.8472
rtibia 8.55067
rfoot 37.4147 -35.1626
rtoes 30.2265
lfemur -27.2808 -20.7729 -10.1973
ltibia 29.6157
lfoot 22.6198 -46.0118
ltoes 49.1152
378
root -5.08573 17.9884 -3.82668 -168.132 -7.27507 -172.397
lowerback -14.0667 16.7973 11.7587
upperback -16.7528 18.1246 -0.971008
thorax -7.0075 6.55469 -4.88843
lowerneck -8.0683 -20.5948 -5.95145
upperneck 13.7414 -28.9823 5.17084
head 7.09097 -14.1972 -0.34182
rclavicle 6.11263e-014 -1.17283e-014
rhumerus 111.366 26.0899 -52.1595
rradius 76.2854
rwrist 16.5513
rhand -51.5474 32.1711
rfingers 7.12502
rthumb -24.0736 3.66117
lclavicle 6.11263e-014 -1.17283e-014
lhumerus 75.433 25.6928 64.669
lradius 82.8089
lwrist 12.9864
lhand -32.3017 8.48085
lfingers 7.12502
lthumb -185.54 -141.612
rfemur 18.7081 -10.3481 25.9512
rtibia 8.95184
rfoot 37.7619 -35.105
rtoes 29.277
lfemur -27.2491 -20.8085 -10.316
ltibia 29.6468
lfoot 22.6179 -46.1076
ltoes 49.1993
379
root -5.08098 17.9892 -3.83704 -168.156 -7.33095 -172.465
lowerback -14.0332 16.79 11.7579
upperback -16.75 18.1337 -1.06255
thorax -6.98812 6.5632 -4.98622
lowerneck -7.94053 -20.4704 -5.84531
upperneck 13.4464 -28.8149 5.32503
head 6.97469 -14.1148 -0.255296
rclavicle 1.01977e-013 5.22804e-014
rhumerus 111.071 25.7146 -52.5088
rradius 76.4153
rwrist 15.8441
rhand -51.5818 32.7691
rfingers 7.12502
rthumb -24.1065 4.26353
lclavicle 1.01977e-013 5.22804e-014
lhumerus 75.2642 25.8498 64.0343
lradius 82.5727
lwrist 12.407
lhand -32.3661 8.58869
lfingers 7.12502
lthumb -185.602 -141.505
rfemur 18.4789 -9.85432 26.0841
rtibia 9.35755
rfoot 37.7124 -35.5272
rtoes 29.0356
lfemur -27.1804 -20.7612 -10.4105
ltibia 29.6598
lfoot 22.3526 -46.3612
ltoes 48.9771
380
root -5.07493 17.9902 -3.84563 -168.138 -7.3625 -172.491
lowerback -14.0334 16.7483 11.73
upperback -16.7381 18.0862 -1.07685
thorax -6.98304 6.54448 -4.99717
lowerneck -8.05073 -20.3863 -5.73725
upperneck 13.5631 -28.7065 5.25616
head 6.99958 -14.0579 -0.287857
rclavicle -8.45829e-014 -2.92213e-014
rhumerus 110.66 25.4165 -52.738
rradius 76.689
rwrist 15.1207
rhand -51.6561 33.4948
rfingers 7.12502
rthumb -24.1778 4.99866
lclavicle -8.45829e-014 -2.92213e-014
lhumerus 74.9419 26.0846 63.3109
lradius 82.3165
lwrist 11.8173
lhand -32.3396 8.61949
lfingers 7.12502
lthumb -185.577 -141.474
rfemur 18.195 -9.32777 26.2753
rtibia 9.78828
rfoot 37.6783 -35.9441
rtoes 29.0321
lfemur -27.1531 -20.6874 -10.4267
ltibia 29.6421
lfoot 22.3059 -46.4627
ltoes 48.9178
381
root -5.07052 17.9914 -3.85179 -168.069 -7.36285 -172.549
lowerback -14.0437 16.7402 11.6946
upperback -16.7157 18.0847 -1.1172
thorax -6.94669 6.55253 -5.0177
lowerneck -8.2793 -20.3724 -5.64726
upperneck 13.6352 -28.6557 5.13609
head 7.02608 -14.0255 -0.348881
rclavicle -5.40694e-014 1.98785e-015
rhumerus 110.354 25.248 -52.8968
rradius 76.8065
rwrist 14.6198
rhand -51.8363 34.1483
rfingers 7.12502
rthumb -24.3506 5.67524
lclavicle -5.40694e-014 1.98785e-015
lhumerus 74.6739 26.2465 62.7086
lradius 82.0878
lwrist 11.5128
lhand -32.1687 8.61819
lfingers 7.12502
lthumb -185.412 -141.471
rfemur 17.8932 -8.76616 26.4185
rtibia 10.1468
rfoot 37.8618 -36.2495
rtoes 28.8064
lfemur -27.175 -20.7019 -10.4513
ltibia 29.6117
lfoot 22.3908 -46.4195
ltoes 48.9072
382
root -5.06665 17.9937 -3.85803 -168.009 -7.33339 -172.63
lowerback -14.0129 16.7634 11.6858
upperback -16.7152 18.1297 -1.20353
thorax -6.92716 6.57753 -5.09848
lowerneck -8.29711 -20.3613 -5.56094
upperneck 13.5129 -28.618 5.11335
head 6.9715 -14.0069 -0.349809
rclavicle -1.89641e-013 -1.38752e-013
rhumerus 110.077 25.2111 -53.0604
rradius 76.7758
rwrist 14.3085
rhand -52.2461 34.3886
rfingers 7.12502
rthumb -24.7434 5.96889
lclavicle -1.89641e-013 -1.38752e-013
lhumerus 74.4498 26.2647 62.1665
lradius 81.8968
lwrist 11.3808
lhand -32.1873 8.60188
lfingers 7.12502
lthumb -185.43 -141.488
rfemur 17.6707 -8.75925 26.3322
rtibia 10.441
rfoot 37.9953 -36.1294
rtoes 28.7866
lfemur -27.1704 -20.7254 -10.5195
ltibia 29.5745
lfoot 22.4188 -46.4163
ltoes 48.963
383
root -5.0615 17.9985 -3.86541 -167.991 -7.32588 -172.625
lowerback -13.9503 16.7491 11.7113
upperback -16.7355 18.1201 -1.21897
thorax -6.97231 6.56492 -5.14431
lowerneck -8.21252 -20.3038 -5.48404
upperneck 13.4519 -28.5335 5.07144
head 6.91691 -13.9723 -0.342025
rclavicle -1.11319e-014 -2.3059e-014
rhumerus 109.814 25.3282 -53.2858
rradius 76.6652
rwrist 14.0701
rhand -52.4697 34.4787
rfingers 7.12502
rthumb -24.9576 6.08861
lclavicle -1.11319e-014 -2.3059e-014
lhumerus 74.1164 26.3413 61.4337
lradius 81.6406
lwrist 11.3569
lhand -32.299 8.54949
lfingers 7.12502
lthumb -185.537 -141.543
rfemur 17.4841 -8.68511 26.3752
rtibia 10.7246
rfoot 38.2913 -35.676
rtoes 28.0473
lfemur -27.1206 -20.7051 -10.5057
ltibia 29.5268
lfoot 22.1615 -46.5329
ltoes 48.862
384
root -5.05621 18.0035 -3.87077 -167.956 -7.29688 -172.645
lowerback -13.9234 16.7259 11.6936
upperback -16.7307 18.0971 -1.20873
thorax -6.99174 6.55434 -5.13701
lowerneck -8.24531 -20.2336 -5.48552
upperneck 13.5543 -28.4272 4.99161
head 6.93851 -13.9229 -0.359443
rclavicle 1.8487e-013 1.962e-013
rhumerus 109.607 25.5769 -53.4737
rradius 76.4808
rwrist 14.0072
rhand -52.5141 34.6232
rfingers 7.12502
rthumb -25.0003 6.23897
lclavicle 1.8487e-013 1.962e-013
lhumerus 73.7397 26.4843 60.6254
lradius 81.3487
lwrist 11.6033
lhand -32.2277 8.3794
lfingers 7.12502
lthumb -185.469 -141.711
rfemur 17.3228 -8.66364 26.3593
rtibia 10.9321
rfoot 38.8161 -34.9665
rtoes 27.3312
lfemur -27.0938 -20.5863 -10.5431
ltibia 29.4783
lfoot 22.2799 -46.4305
ltoes 48.8663
385
root -5.05132 18.0078 -3.87369 -167.909 -7.23592 -172.728
lowerback -13.8876 16.7225 11.6497
upperback -16.7106 18.1093 -1.21847
thorax -6.99221 6.56787 -5.13141
lowerneck -8.25995 -20.1658 -5.64605
upperneck 13.6269 -28.3212 5.02408
head 6.98635 -13.8705 -0.331921
rclavicle 4.52235e-014 3.95581e-014
rhumerus 109.182 25.3645 -53.6389
rradius 76.487
rwrist 13.4872
rhand -52.6605 34.3822
rfingers 7.12502
rthumb -25.1405 6.01762
lclavicle 4.52235e-014 3.95581e-014
lhumerus 73.3748 26.5237 59.9242
lradius 81.0783
lwrist 11.8801
lhand -32.1183 8.4011
lfingers 7.12502
lthumb -185.363 -141.687
rfemur 17.2184 -8.74821 26.2133
rtibia 11.0427
rfoot 39.2884 -34.4171
rtoes 26.9832
lfemur -27.0921 -20.4807 -10.6462
ltibia 29.4387
lfoot 23.0616 -45.9205
ltoes 49.4899
386
root -5.04579 18.011 -3.87527 -167.875 -7.17126 -172.781
lowerback -13.8201 16.6997 11.6297
upperback -16.6663 18.1043 -1.19727
thorax -6.98759 6.57531 -5.11341
lowerneck -8.34582 -20.1119 -5.76399
upperneck 13.7045 -28.2209 5.00344
head 7.03345 -13.8194 -0.32972
rclavicle -1.08039e-013 -5.10877e-014
rhumerus 108.824 25.275 -53.829
rradius 76.3503
rwrist 13.0345
rhand -52.6009 34.5036
rfingers 7.12502
rthumb -25.0834 6.13101
lclavicle -1.08039e-013 -5.10877e-014
lhumerus 73.066 26.5383 59.3162
lradius 80.7487
lwrist 12.0642
lhand -31.9649 8.60204
lfingers 7.12502
lthumb -185.215 -141.482
rfemur 17.1448 -8.80495 26.1094
rtibia 11.1208
rfoot 39.5949 -34.2284
rtoes 26.9293
lfemur -27.075 -20.4444 -10.6833
ltibia 29.3922
lfoot 23.5563 -45.5167
ltoes 50.0625
